# Blender v2.79 (sub 0) OBJ File: 'Mask.blend'
# www.blender.org
mtllib Mask_v2.mtl
o body_Circle
v 0.094122 0.660302 0.670801
v 0.145534 0.438984 0.581614
v 0.054556 1.019616 0.698947
v 0.442217 0.959112 0.528788
v 0.051924 1.209444 0.693131
v 0.116906 1.365481 0.704806
v 0.316442 1.386275 0.619086
v 0.487844 1.366576 0.477306
v 0.279653 0.928684 0.648097
v 0.485031 1.163698 0.446926
v 0.196947 0.853333 0.683105
v 0.254362 0.709547 0.617784
v 0.373438 0.733870 0.528346
v 0.480696 0.754332 0.273457
v 0.312934 0.471678 0.388689
v 0.221392 0.441321 0.503987
v 0.170185 1.672530 0.548786
v 0.521278 0.981866 0.241972
v 0.477029 1.500006 0.408461
v 0.558160 1.208281 0.271728
v 0.340310 1.623368 0.488761
v 0.132817 1.141234 0.632297
v 0.166130 1.168356 0.630232
v 0.290525 1.213559 0.613434
v 0.406284 1.272037 0.543181
v 0.181586 1.092028 0.612360
v 0.351402 1.052613 0.597439
v 0.410475 1.154357 0.535566
v 0.147005 0.683011 0.450973
v 0.054556 1.098904 0.512630
v 0.384896 0.959112 0.307572
v 0.051924 1.209444 0.557060
v 0.116906 1.328461 0.544017
v 0.268438 1.348249 0.471003
v 0.387157 1.318188 0.355584
v 0.223934 0.928684 0.407631
v 0.412635 1.163698 0.318911
v 0.068098 0.955193 0.444441
v 0.232107 0.709547 0.440427
v 0.197416 0.612536 0.438953
v 0.352588 0.748675 0.360362
v 0.415743 0.754332 0.262430
v 0.271162 0.519070 0.370729
v 0.234035 0.561233 0.436357
v 0.170185 1.600784 0.434966
v 0.458097 0.981866 0.235626
v 0.384071 1.458869 0.312792
v 0.477982 1.208281 0.241156
v 0.312870 1.536104 0.345602
v 0.132817 1.141234 0.510733
v 0.166130 1.168356 0.516650
v 0.257080 1.213559 0.441273
v 0.347061 1.263429 0.396766
v 0.186293 1.086324 0.475735
v 0.328134 1.067296 0.416906
v 0.371171 1.168076 0.380739
v 0.062049 0.818299 0.711974
v -0.094122 0.660302 0.670801
v -0.145534 0.438984 0.581614
v -0.054556 1.019616 0.698947
v -0.442217 0.959112 0.528788
v -0.051924 1.209444 0.693131
v -0.116906 1.365481 0.704806
v -0.316442 1.386275 0.619086
v -0.487844 1.366576 0.477306
v -0.279653 0.928684 0.648097
v -0.485031 1.163698 0.446926
v -0.196947 0.853333 0.683105
v -0.254362 0.709547 0.617784
v -0.373438 0.733870 0.528346
v -0.480696 0.754332 0.273457
v -0.312934 0.471678 0.388689
v -0.221392 0.441321 0.503987
v -0.170185 1.672530 0.548786
v -0.521278 0.981866 0.241972
v -0.477029 1.500006 0.408461
v -0.558160 1.208281 0.271728
v -0.340310 1.623368 0.488761
v -0.132817 1.141234 0.632297
v -0.166130 1.168356 0.630232
v -0.290525 1.213559 0.613434
v -0.406284 1.272037 0.543181
v -0.181586 1.092028 0.612360
v -0.351402 1.052613 0.597439
v -0.410475 1.154357 0.535566
v 0.000000 1.006096 0.715703
v 0.000000 1.221384 0.711192
v 0.000000 1.353953 0.739495
v 0.000000 0.412169 0.603231
v 0.000000 0.360692 0.414655
v 0.000000 1.681642 0.568021
v -0.147005 0.683011 0.450973
v -0.054556 1.098904 0.512630
v -0.384896 0.959112 0.307572
v -0.051924 1.209444 0.557060
v -0.116906 1.328461 0.544017
v -0.268438 1.348249 0.471003
v -0.387157 1.318188 0.355584
v -0.223934 0.928684 0.407631
v -0.412635 1.163698 0.318911
v -0.068098 0.955193 0.444441
v -0.232107 0.709547 0.440427
v -0.197416 0.612536 0.438953
v -0.352588 0.748675 0.360362
v -0.415743 0.754332 0.262430
v -0.271162 0.519070 0.370729
v -0.234035 0.561233 0.436357
v -0.170185 1.600784 0.434966
v -0.458097 0.981866 0.235626
v -0.384071 1.458869 0.312792
v -0.477982 1.208281 0.241156
v -0.312870 1.536104 0.345602
v -0.132817 1.141234 0.510733
v -0.166130 1.168356 0.516650
v -0.257080 1.213559 0.441273
v -0.347061 1.263429 0.396766
v -0.186293 1.086324 0.475735
v -0.328134 1.067296 0.416906
v -0.371171 1.168076 0.380739
v 0.000000 1.221384 0.564817
v 0.000000 1.312187 0.556796
v 0.000000 0.966763 0.454400
v 0.000000 0.655582 0.481639
v 0.000000 0.412817 0.391561
v 0.000000 1.633805 0.465841
v -0.062049 0.818299 0.711974
v 0.000000 0.810293 0.728222
v 0.000000 0.638982 0.692539
v 0.000000 0.555550 0.463777
v 0.000000 0.492149 0.454622
v 0.000000 1.106045 0.517162
vt 0.000000 0.000000
vt 0.000000 0.000000
vt 0.000000 0.000000
vt 0.000000 0.000000
vt 0.000000 0.000000
vt 0.000000 0.000000
vt 0.000000 0.000000
vt 0.000000 0.000000
vt 0.000000 0.000000
vt 0.000000 0.000000
vt 0.000000 0.000000
vt 0.000000 0.000000
vt 0.000000 0.000000
vt 0.000000 0.000000
vt 0.000000 0.000000
vt 0.000000 0.000000
vt 0.000000 0.000000
vt 0.000000 0.000000
vt 0.000000 0.000000
vt 0.000000 0.000000
vt 0.000000 0.000000
vt 0.000000 0.000000
vt 0.000000 0.000000
vt 0.000000 0.000000
vt 0.000000 0.000000
vt 0.000000 0.000000
vt 0.000000 0.000000
vt 0.000000 0.000000
vt 0.000000 0.000000
vt 0.000000 0.000000
vt 0.000000 0.000000
vt 0.000000 0.000000
vt 0.000000 0.000000
vt 0.000000 0.000000
vt 0.000000 0.000000
vt 0.000000 0.000000
vt 0.000000 0.000000
vt 0.000000 0.000000
vt 0.000000 0.000000
vt 0.000000 0.000000
vt 0.000000 0.000000
vt 0.000000 0.000000
vt 0.000000 0.000000
vt 0.000000 0.000000
vt 0.000000 0.000000
vt 0.000000 0.000000
vt 0.000000 0.000000
vt 0.000000 0.000000
vt 0.000000 0.000000
vt 0.000000 0.000000
vt 0.000000 0.000000
vt 0.000000 0.000000
vt 0.000000 0.000000
vt 0.000000 0.000000
vt 0.000000 0.000000
vt 0.000000 0.000000
vt 0.000000 0.000000
vt 0.000000 0.000000
vt 0.000000 0.000000
vt 0.000000 0.000000
vt 0.000000 0.000000
vt 0.000000 0.000000
vt 0.000000 0.000000
vt 0.000000 0.000000
vt 0.000000 0.000000
vt 0.000000 0.000000
vt 0.000000 0.000000
vt 0.000000 0.000000
vt 0.000000 0.000000
vt 0.000000 0.000000
vt 0.000000 0.000000
vt 0.000000 0.000000
vt 0.000000 0.000000
vt 0.000000 0.000000
vt 0.000000 0.000000
vt 0.000000 0.000000
vt 0.000000 0.000000
vt 0.000000 0.000000
vt 0.000000 0.000000
vt 0.000000 0.000000
vt 0.000000 0.000000
vt 0.000000 0.000000
vt 0.000000 0.000000
vt 0.000000 0.000000
vt 0.000000 0.000000
vt 0.000000 0.000000
vt 0.000000 0.000000
vt 0.000000 0.000000
vt 0.000000 0.000000
vt 0.000000 0.000000
vt 0.000000 0.000000
vt 0.000000 0.000000
vt 0.000000 0.000000
vt 0.000000 0.000000
vt 0.000000 0.000000
vt 0.000000 0.000000
vt 0.000000 0.000000
vt 0.000000 0.000000
vt 0.000000 0.000000
vt 0.000000 0.000000
vt 0.000000 0.000000
vt 0.000000 0.000000
vt 0.000000 0.000000
vt 0.000000 0.000000
vt 0.000000 0.000000
vt 0.000000 0.000000
vt 0.000000 0.000000
vt 0.000000 0.000000
vt 0.000000 0.000000
vt 0.000000 0.000000
vt 0.000000 0.000000
vt 0.000000 0.000000
vt 0.000000 0.000000
vt 0.000000 0.000000
vt 0.000000 0.000000
vt 0.000000 0.000000
vt 0.000000 0.000000
vt 0.000000 0.000000
vt 0.000000 0.000000
vt 0.000000 0.000000
vt 0.000000 0.000000
vt 0.000000 0.000000
vt 0.000000 0.000000
vt 0.000000 0.000000
vt 0.000000 0.000000
vt 0.000000 0.000000
vt 0.000000 0.000000
vt 0.000000 0.000000
vt 0.000000 0.000000
vn 0.8821 -0.0410 0.4692
vn 0.8231 0.1069 0.5578
vn 0.5000 -0.4003 0.7680
vn -0.0808 0.2374 0.9680
vn -0.2664 -0.0404 -0.9630
vn -0.4546 0.3235 -0.8298
vn -0.6265 0.1215 -0.7699
vn -0.3534 -0.1510 -0.9232
vn 0.8146 -0.1108 0.5692
vn 0.3668 0.5182 0.7726
vn 0.0000 0.0631 -0.9980
vn 0.0000 0.4395 -0.8982
vn 0.3769 -0.1109 0.9196
vn 0.3305 0.1062 0.9378
vn 0.5237 0.6531 0.5469
vn 0.7329 -0.0882 0.6746
vn 0.0000 0.1271 -0.9919
vn -0.1564 0.1833 -0.9705
vn -0.1509 0.3232 -0.9342
vn 0.0000 0.3958 -0.9183
vn 0.3006 0.1156 0.9467
vn 0.4977 0.1460 0.8549
vn 0.4855 0.8581 0.1668
vn 0.2353 0.9254 0.2969
vn 0.5217 -0.6456 0.5578
vn 0.5269 -0.6281 0.5725
vn 0.0000 -0.1069 0.9943
vn 0.0000 0.0518 0.9986
vn 0.0000 0.1050 0.9944
vn 0.4552 0.0405 0.8895
vn 0.2738 -0.0703 0.9592
vn 0.3646 -0.0723 0.9283
vn 0.0000 -0.0761 0.9971
vn 0.2984 -0.2597 0.9184
vn 0.3818 -0.6594 0.6476
vn 0.5152 -0.2665 0.8146
vn 0.8095 0.5849 -0.0506
vn 0.7717 -0.4128 -0.4838
vn 0.7703 -0.2832 0.5713
vn 0.5576 -0.7418 0.3726
vn 0.6275 -0.7002 -0.3405
vn 0.0000 0.9432 0.3321
vn 0.8945 0.1485 -0.4217
vn -0.2586 0.0594 -0.9641
vn -0.3463 0.0432 -0.9371
vn 0.8229 -0.1537 -0.5470
vn -0.5812 -0.1131 -0.8059
vn -0.7565 -0.0925 -0.6474
vn -0.7816 -0.2543 -0.5696
vn -0.1458 -0.6531 -0.7431
vn -0.3150 0.0050 -0.9491
vn -0.1860 0.1789 -0.9661
vn 0.2470 0.3399 -0.9074
vn 0.0089 0.6738 -0.7388
vn 0.0000 -0.9120 -0.4100
vn -0.7938 0.0464 -0.6064
vn -0.9566 0.1117 -0.2692
vn -0.3269 -0.1246 -0.9368
vn 0.1158 -0.6667 -0.7363
vn 0.0000 -0.1735 -0.9848
vn -0.2420 0.0768 -0.9672
vn -0.1397 0.2940 -0.9455
vn -0.1718 0.3886 -0.9052
vn 0.0000 0.4585 -0.8887
vn -0.1677 0.4168 -0.8934
vn -0.6559 0.0691 -0.7516
vn -0.6779 0.5092 -0.5301
vn 0.0000 -0.2817 0.9595
vn 0.0000 -0.7456 0.6664
vn 0.0000 0.0868 -0.9962
vn 0.0000 0.0916 -0.9958
vn -0.1863 0.2424 -0.9521
vn 0.0000 0.2675 -0.9635
vn -0.8821 -0.0410 0.4692
vn 0.0808 0.2374 0.9680
vn -0.5000 -0.4003 0.7680
vn -0.8231 0.1069 0.5578
vn 0.2664 -0.0404 -0.9630
vn 0.3534 -0.1510 -0.9232
vn 0.6265 0.1215 -0.7699
vn 0.4546 0.3235 -0.8298
vn -0.8146 -0.1108 0.5692
vn -0.3668 0.5182 0.7726
vn -0.3769 -0.1109 0.9196
vn -0.7329 -0.0882 0.6746
vn -0.5237 0.6531 0.5469
vn -0.3305 0.1062 0.9378
vn 0.1509 0.3232 -0.9342
vn 0.1564 0.1833 -0.9705
vn -0.3006 0.1156 0.9467
vn -0.2353 0.9254 0.2969
vn -0.4855 0.8581 0.1668
vn -0.4977 0.1460 0.8549
vn -0.5217 -0.6456 0.5578
vn -0.5269 -0.6281 0.5725
vn -0.4552 0.0405 0.8895
vn -0.3646 -0.0723 0.9283
vn -0.2738 -0.0703 0.9592
vn -0.2984 -0.2597 0.9184
vn -0.5152 -0.2665 0.8146
vn -0.3818 -0.6594 0.6476
vn -0.8095 0.5849 -0.0506
vn -0.7717 -0.4128 -0.4838
vn -0.6275 -0.7002 -0.3405
vn -0.5576 -0.7418 0.3726
vn -0.7703 -0.2832 0.5713
vn -0.8945 0.1485 -0.4217
vn 0.2586 0.0594 -0.9641
vn 0.3463 0.0432 -0.9371
vn -0.8229 -0.1537 -0.5470
vn 0.5812 -0.1131 -0.8059
vn 0.1458 -0.6531 -0.7431
vn 0.7816 -0.2543 -0.5696
vn 0.7565 -0.0925 -0.6474
vn 0.1860 0.1789 -0.9661
vn 0.3150 0.0050 -0.9491
vn -0.0089 0.6738 -0.7388
vn -0.2470 0.3399 -0.9074
vn 0.9566 0.1117 -0.2692
vn 0.7938 0.0464 -0.6064
vn 0.3269 -0.1246 -0.9368
vn -0.1158 -0.6667 -0.7363
vn 0.2420 0.0768 -0.9672
vn 0.1397 0.2940 -0.9455
vn 0.1718 0.3886 -0.9052
vn 0.1677 0.4168 -0.8934
vn 0.6559 0.0691 -0.7516
vn 0.6779 0.5092 -0.5301
vn 0.1863 0.2424 -0.9521
usemtl Material
s 1
f 10/1/1 8/2/2 25/3/3 28/4/4
f 43/5/5 44/6/6 41/7/7 42/8/8
f 4/9/9 10/1/1 28/4/4 27/10/10
f 43/5/5 124/11/11 130/12/12 44/6/6
f 5/13/13 3/14/14 26/15/15 22/16/16
f 120/17/17 32/18/18 30/19/19 131/20/20
f 6/21/21 7/22/22 21/23/23 17/24/24
f 8/2/2 7/22/22 24/25/25 25/3/3
f 7/22/22 6/21/21 23/26/26 24/25/25
f 6/21/21 5/13/13 22/16/16 23/26/26
f 3/14/14 5/13/13 87/27/27 86/28/28
f 5/13/13 6/21/21 88/29/29 87/27/27
f 9/30/30 3/14/14 57/31/31 11/32/32
f 3/14/14 86/28/28 127/33/33 57/31/31
f 1/34/34 2/35/35 12/36/36
f 19/37/37 21/23/23 7/22/22 8/2/2
f 14/38/38 13/39/39 16/40/40 15/41/41
f 9/30/30 11/32/32 12/36/36 13/39/39
f 88/29/29 6/21/21 17/24/24 91/42/42
f 8/2/2 10/1/1 20/43/43 19/37/37
f 40/44/44 39/45/45 41/7/7 44/6/6
f 18/46/46 4/9/9 13/39/39 14/38/38
f 18/46/46 20/43/43 10/1/1 4/9/9
f 34/47/47 35/48/48 53/49/49 52/50/50
f 20/43/43 18/46/46 46/51/51 48/52/52
f 30/19/19 32/18/18 50/53/53 54/54/54
f 90/55/55 15/41/41 16/40/40
f 35/48/48 37/56/56 56/57/57 53/49/49
f 33/58/58 34/47/47 52/50/50 51/59/59
f 50/53/53 32/18/18 33/58/58 51/59/59
f 32/18/18 120/17/17 121/60/60 33/58/58
f 39/45/45 40/44/44 29/61/61
f 47/62/62 35/48/48 34/47/47 49/63/63
f 14/38/38 15/41/41 43/5/5 42/8/8
f 33/58/58 121/60/60 125/64/64 45/65/65
f 37/56/56 35/48/48 47/62/62 48/52/52
f 14/38/38 42/8/8 46/51/51 18/46/46
f 46/51/51 42/8/8 41/7/7 31/66/66
f 37/56/56 31/66/66 55/67/67 56/57/57
f 19/37/37 47/62/62 49/63/63 21/23/23
f 46/51/51 31/66/66 37/56/56 48/52/52
f 34/47/47 33/58/58 45/65/65 49/63/63
f 24/25/25 52/50/50 53/49/49 25/3/3
f 28/4/4 56/57/57 55/67/67 27/10/10
f 27/10/10 55/67/67 54/54/54 26/15/15
f 25/3/3 53/49/49 56/57/57 28/4/4
f 4/9/9 27/10/10 9/30/30 13/39/39
f 1/34/34 12/36/36 11/32/32 57/31/31
f 26/15/15 54/54/54 50/53/53 22/16/16
f 17/24/24 45/65/65 125/64/64 91/42/42
f 20/43/43 48/52/52 47/62/62 19/37/37
f 21/23/23 49/63/63 45/65/65 17/24/24
f 22/16/16 50/53/53 51/59/59 23/26/26
f 23/26/26 51/59/59 52/50/50 24/25/25
f 26/15/15 3/14/14 9/30/30 27/10/10
f 1/34/34 57/31/31 127/33/33 128/68/68
f 128/68/68 89/69/69 2/35/35 1/34/34
f 129/70/70 123/71/71 29/61/61 40/44/44
f 130/12/12 129/70/70 40/44/44 44/6/6
f 30/19/19 38/72/72 122/73/73 131/20/20
f 90/55/55 124/11/11 43/5/5 15/41/41
f 2/35/35 89/69/69 90/55/55 16/40/40
f 16/40/40 13/39/39 12/36/36 2/35/35
f 54/54/54 55/67/67 31/66/66 41/7/7 39/45/45 29/61/61 123/71/71 122/73/73 38/72/72 30/19/19
f 67/74/74 85/75/75 82/76/76 65/77/77
f 106/78/78 105/79/79 104/80/80 107/81/81
f 61/82/82 84/83/83 85/75/75 67/74/74
f 106/78/78 107/81/81 130/12/12 124/11/11
f 62/84/84 79/85/85 83/86/86 60/87/87
f 120/17/17 131/20/20 93/88/88 95/89/89
f 63/90/90 74/91/91 78/92/92 64/93/93
f 65/77/77 82/76/76 81/94/94 64/93/93
f 64/93/93 81/94/94 80/95/95 63/90/90
f 63/90/90 80/95/95 79/85/85 62/84/84
f 60/87/87 86/28/28 87/27/27 62/84/84
f 62/84/84 87/27/27 88/29/29 63/90/90
f 66/96/96 68/97/97 126/98/98 60/87/87
f 60/87/87 126/98/98 127/33/33 86/28/28
f 58/99/99 69/100/100 59/101/101
f 76/102/102 65/77/77 64/93/93 78/92/92
f 71/103/103 72/104/104 73/105/105 70/106/106
f 66/96/96 70/106/106 69/100/100 68/97/97
f 88/29/29 91/42/42 74/91/91 63/90/90
f 65/77/77 76/102/102 77/107/107 67/74/74
f 103/108/108 107/81/81 104/80/80 102/109/109
f 75/110/110 71/103/103 70/106/106 61/82/82
f 75/110/110 61/82/82 67/74/74 77/107/107
f 97/111/111 115/112/112 116/113/113 98/114/114
f 77/107/107 111/115/115 109/116/116 75/110/110
f 93/88/88 117/117/117 113/118/118 95/89/89
f 90/55/55 73/105/105 72/104/104
f 98/114/114 116/113/113 119/119/119 100/120/120
f 96/121/121 114/122/122 115/112/112 97/111/111
f 113/118/118 114/122/122 96/121/121 95/89/89
f 95/89/89 96/121/121 121/60/60 120/17/17
f 102/109/109 92/123/123 103/108/108
f 110/124/124 112/125/125 97/111/111 98/114/114
f 71/103/103 105/79/79 106/78/78 72/104/104
f 96/121/121 108/126/126 125/64/64 121/60/60
f 100/120/120 111/115/115 110/124/124 98/114/114
f 71/103/103 75/110/110 109/116/116 105/79/79
f 109/116/116 94/127/127 104/80/80 105/79/79
f 100/120/120 119/119/119 118/128/128 94/127/127
f 76/102/102 78/92/92 112/125/125 110/124/124
f 109/116/116 111/115/115 100/120/120 94/127/127
f 97/111/111 112/125/125 108/126/126 96/121/121
f 81/94/94 82/76/76 116/113/113 115/112/112
f 85/75/75 84/83/83 118/128/128 119/119/119
f 84/83/83 83/86/86 117/117/117 118/128/128
f 82/76/76 85/75/75 119/119/119 116/113/113
f 61/82/82 70/106/106 66/96/96 84/83/83
f 58/99/99 126/98/98 68/97/97 69/100/100
f 83/86/86 79/85/85 113/118/118 117/117/117
f 74/91/91 91/42/42 125/64/64 108/126/126
f 77/107/107 76/102/102 110/124/124 111/115/115
f 78/92/92 74/91/91 108/126/126 112/125/125
f 79/85/85 80/95/95 114/122/122 113/118/118
f 80/95/95 81/94/94 115/112/112 114/122/122
f 83/86/86 84/83/83 66/96/96 60/87/87
f 58/99/99 128/68/68 127/33/33 126/98/98
f 128/68/68 58/99/99 59/101/101 89/69/69
f 129/70/70 103/108/108 92/123/123 123/71/71
f 130/12/12 107/81/81 103/108/108 129/70/70
f 93/88/88 131/20/20 122/73/73 101/129/129
f 90/55/55 72/104/104 106/78/78 124/11/11
f 59/101/101 73/105/105 90/55/55 89/69/69
f 73/105/105 59/101/101 69/100/100 70/106/106
f 117/117/117 93/88/88 101/129/129 122/73/73 123/71/71 92/123/123 102/109/109 104/80/80 94/127/127 118/128/128
l 31 36
l 36 38
l 29 38
l 30 36
l 36 39
l 36 54
l 94 99
l 99 101
l 92 101
l 93 99
l 99 102
l 99 117
