# Blender v2.79 (sub 0) OBJ File: 'Dart.blend'
# www.blender.org
mtllib Dart.mtl
o model
v -0.162204 -0.011692 0.018002
v -0.161528 -0.012697 0.022821
v -0.104864 -0.004494 0.016587
v -0.105539 -0.003489 0.011769
v -0.160654 -0.015975 0.026452
v -0.103990 -0.007772 0.020218
v -0.159816 -0.020647 0.027921
v -0.103152 -0.012444 0.021687
v -0.159238 -0.025461 0.026835
v -0.102574 -0.017258 0.020602
v -0.159076 -0.029128 0.023486
v -0.102412 -0.020925 0.017252
v -0.159373 -0.030664 0.018770
v -0.102708 -0.022461 0.012536
v -0.160048 -0.029658 0.013951
v -0.103384 -0.021455 0.007717
v -0.160922 -0.026380 0.010321
v -0.104258 -0.018177 0.004087
v -0.161760 -0.021708 0.008852
v -0.105096 -0.013506 0.002618
v -0.162338 -0.016894 0.009937
v -0.105674 -0.008691 0.003703
v -0.162500 -0.013228 0.013287
v -0.105836 -0.005025 0.007053
v -0.194785 -0.025758 0.019099
v -0.031171 -0.035372 0.064128
v -0.055853 -0.032325 0.054435
v -0.055361 -0.036696 0.051807
v -0.030678 -0.039743 0.061500
v -0.077999 -0.026441 0.040497
v -0.077507 -0.030812 0.037869
v -0.091674 -0.019296 0.026049
v -0.091182 -0.023667 0.023422
v -0.084329 -0.012575 0.016246
v -0.083836 -0.016947 0.013618
v -0.063580 -0.002164 0.002814
v -0.063087 -0.006536 0.000187
v -0.033741 0.003887 -0.001977
v -0.033249 -0.000484 -0.004604
v -0.005433 0.009257 -0.005291
v -0.004941 0.004886 -0.007918
v 0.016713 0.003373 0.008647
v 0.017205 -0.000999 0.006019
v 0.010231 -0.008542 0.027252
v 0.010724 -0.012913 0.024625
v 0.018621 -0.018887 0.046033
v 0.019113 -0.023258 0.043406
v -0.002129 -0.029298 0.059465
v -0.001636 -0.033669 0.056837
v -0.044041 -0.046740 -0.040504
v -0.065620 -0.040198 -0.026221
v -0.066505 -0.036250 -0.029365
v -0.044925 -0.042792 -0.043648
v -0.083614 -0.030430 -0.008897
v -0.084499 -0.026482 -0.012042
v -0.093202 -0.020054 0.006826
v -0.094086 -0.016106 0.003681
v -0.083470 -0.012564 0.013491
v -0.084355 -0.008616 0.010347
v -0.059700 -0.002014 0.020050
v -0.060585 0.001934 0.016905
v -0.029372 0.002418 0.016820
v -0.030256 0.006366 0.013675
v -0.000794 0.005585 0.013020
v -0.001678 0.009533 0.009876
v 0.017201 -0.004183 -0.004304
v 0.016316 -0.000235 -0.007448
v 0.006016 -0.018196 -0.018750
v 0.005132 -0.014248 -0.021894
v 0.009311 -0.031937 -0.036928
v 0.008426 -0.027990 -0.040072
v -0.014459 -0.042487 -0.043486
v -0.015343 -0.038540 -0.046631
v -0.053562 0.059997 -0.001076
v -0.073455 0.042466 0.001985
v -0.073073 0.042921 0.007074
v -0.053180 0.060452 0.004013
v -0.089227 0.020997 0.005089
v -0.088845 0.021452 0.010178
v -0.096651 0.001342 0.007404
v -0.096269 0.001797 0.012494
v -0.085701 -0.007338 0.007359
v -0.085319 -0.006883 0.012448
v -0.060424 -0.016236 0.006258
v -0.060042 -0.015781 0.011347
v -0.029867 -0.013024 0.003839
v -0.029485 -0.012568 0.008929
v -0.001295 -0.008823 0.001157
v -0.000913 -0.008368 0.006246
v 0.014476 0.012646 -0.001947
v 0.014858 0.013101 0.003142
v 0.000869 0.031208 -0.002586
v 0.001251 0.031663 0.002503
v 0.001492 0.054129 -0.004683
v 0.001874 0.054584 0.000406
v -0.023785 0.063026 -0.003582
v -0.023404 0.063482 0.001508
v -0.146160 0.013493 0.014592
v -0.143827 0.010022 0.031226
v -0.078627 0.019460 0.024054
v -0.080959 0.022931 0.007419
v -0.140811 -0.001293 0.043758
v -0.075610 0.008145 0.036586
v -0.137918 -0.017421 0.048830
v -0.072717 -0.007982 0.041658
v -0.135925 -0.034039 0.045083
v -0.070724 -0.024601 0.037910
v -0.135364 -0.046696 0.033521
v -0.070164 -0.037257 0.026348
v -0.136388 -0.051999 0.017242
v -0.071187 -0.042560 0.010069
v -0.138720 -0.048528 0.000607
v -0.073519 -0.039089 -0.006565
v -0.141737 -0.037213 -0.011925
v -0.076536 -0.027774 -0.019097
v -0.144629 -0.021085 -0.016997
v -0.079429 -0.011647 -0.024170
v -0.146623 -0.004467 -0.013249
v -0.081422 0.004972 -0.020422
v -0.147183 0.008189 -0.001687
v -0.081982 0.017628 -0.008860
v -0.151764 -0.005936 0.016245
v -0.150730 -0.007475 0.023622
v -0.149392 -0.012493 0.029180
v -0.148109 -0.019646 0.031429
v -0.147225 -0.027016 0.029768
v -0.146977 -0.032629 0.024640
v -0.147431 -0.034981 0.017420
v -0.148465 -0.033441 0.010043
v -0.149803 -0.028423 0.004485
v -0.151086 -0.021271 0.002236
v -0.151970 -0.013901 0.003898
v -0.152218 -0.008288 0.009025
vn -0.1162 0.9689 0.2185
vn -0.0327 0.7379 0.6741
vn 0.0597 0.3092 0.9491
vn 0.1360 -0.2024 0.9698
vn 0.1759 -0.6597 0.7307
vn 0.1686 -0.9403 0.2957
vn 0.1162 -0.9689 -0.2185
vn 0.0327 -0.7379 -0.6741
vn -0.0597 -0.3092 -0.9491
vn -0.1360 0.2024 -0.9698
vn -0.1759 0.6597 -0.7307
vn -0.1686 0.9403 -0.2957
vn 0.9839 0.1424 -0.1082
vn -0.3780 0.8943 0.2396
vn -0.3340 0.6582 0.6747
vn -0.2706 0.2443 0.9312
vn -0.2046 -0.2386 0.9493
vn -0.1525 -0.6702 0.7263
vn -0.1274 -0.9407 0.3144
vn -0.1366 -0.9734 -0.1840
vn -0.1785 -0.7513 -0.6354
vn -0.2425 -0.3304 -0.9122
vn -0.3112 0.1734 -0.9344
vn -0.3654 0.6190 -0.6952
vn -0.3899 0.8825 -0.2630
vn -0.3683 -0.5091 0.7779
vn -0.5558 -0.4734 0.6833
vn -0.7564 -0.3975 0.5194
vn -0.8452 0.2022 -0.4947
vn -0.6263 0.3486 -0.6973
vn -0.2333 0.4816 -0.8448
vn -0.1924 0.4896 -0.8505
vn 0.5558 0.4734 -0.6833
vn 0.9547 -0.0667 0.2899
vn 0.9263 0.2652 -0.2677
vn 0.6263 -0.3486 0.6973
vn 0.2362 -0.4810 0.8443
vn 0.0961 -0.8531 -0.5127
vn 0.0961 -0.8531 -0.5128
vn -0.0961 0.8531 0.5128
vn -0.5627 -0.5885 -0.5806
vn -0.7212 -0.5232 -0.4540
vn -0.8743 -0.4068 -0.2647
vn -0.6965 0.3451 0.6291
vn -0.4298 0.5017 0.7507
vn -0.0075 0.6220 0.7830
vn 0.0339 0.6273 0.7780
vn 0.7212 0.5233 0.4540
vn 0.8569 -0.1898 -0.4793
vn 0.9745 0.2241 0.0072
vn 0.4298 -0.5017 -0.7507
vn 0.0104 -0.6216 -0.7833
vn -0.1726 0.7703 -0.6139
vn 0.1726 -0.7703 0.6139
vn -0.6625 0.7488 -0.0173
vn -0.8054 0.5927 0.0074
vn -0.9333 0.3570 0.0381
vn -0.6167 -0.7786 0.1159
vn -0.3259 -0.9392 0.1085
vn 0.1105 -0.9906 0.0803
vn 0.1521 -0.9854 0.0767
vn 0.8054 -0.5927 -0.0074
vn 0.8032 0.5850 -0.1126
vn 0.9969 -0.0337 -0.0718
vn 0.3259 0.9392 -0.1085
vn -0.1076 0.9909 -0.0806
vn 0.0745 0.0890 0.9932
vn -0.0745 -0.0889 -0.9932
vn -0.1474 0.9883 -0.0400
vn -0.1475 0.9883 -0.0400
vn -0.0771 0.8835 0.4620
vn 0.0140 0.5420 0.8403
vn 0.1013 0.0553 0.9933
vn 0.1614 -0.4462 0.8802
vn 0.1782 -0.8282 0.5313
vn 0.1783 -0.8282 0.5313
vn 0.1475 -0.9883 0.0400
vn 0.1474 -0.9883 0.0400
vn 0.0771 -0.8835 -0.4620
vn -0.0140 -0.5420 -0.8403
vn -0.1013 -0.0553 -0.9933
vn -0.1614 0.4463 -0.8802
vn -0.1614 0.4462 -0.8802
vn -0.1783 0.8282 -0.5313
vn -0.1784 0.8282 -0.5313
vn -0.9386 0.2870 0.1915
vn -0.9027 0.1879 0.3870
vn -0.8631 0.0040 0.5050
vn -0.8304 -0.2155 0.5139
vn -0.8133 -0.4117 0.4113
vn -0.8164 -0.5321 0.2246
vn -0.8388 -0.5444 0.0040
vn -0.8747 -0.4452 -0.1915
vn -0.9143 -0.2613 -0.3094
vn -0.9471 -0.0418 -0.3183
vn -0.9642 0.1544 -0.2157
vn -0.9611 0.2748 -0.0291
vn -0.9839 -0.1424 0.1082
usemtl mat15
s 1
f 1//1 2//1 3//1 4//1
f 2//2 5//2 6//2 3//2
f 5//3 7//3 8//3 6//3
f 7//4 9//4 10//4 8//4
f 9//5 11//5 12//5 10//5
f 11//6 13//6 14//6 12//6
f 13//7 15//7 16//7 14//7
f 15//8 17//8 18//8 16//8
f 17//9 19//9 20//9 18//9
f 19//10 21//10 22//10 20//10
f 21//11 23//11 24//11 22//11
f 23//12 1//12 4//12 24//12
f 4//13 3//13 6//13 8//13 10//13 12//13 14//13 16//13 18//13 20//13 22//13 24//13
f 25//14 2//14 1//14
f 25//15 5//15 2//15
f 25//16 7//16 5//16
f 25//17 9//17 7//17
f 25//18 11//18 9//18
f 25//19 13//19 11//19
f 25//20 15//20 13//20
f 25//21 17//21 15//21
f 25//22 19//22 17//22
f 25//23 21//23 19//23
f 25//24 23//24 21//24
f 25//25 1//25 23//25
usemtl mat8
f 26//26 27//26 28//26 29//26
f 27//27 30//27 31//27 28//27
f 30//28 32//28 33//28 31//28
f 32//29 34//29 35//29 33//29
f 34//30 36//30 37//30 35//30
f 36//31 38//31 39//31 37//31
f 38//32 40//32 41//32 39//32
f 40//33 42//33 43//33 41//33
f 42//34 44//34 45//34 43//34
f 44//35 46//35 47//35 45//35
f 46//36 48//36 49//36 47//36
f 48//37 26//37 29//37 49//37
f 29//38 28//38 31//38 33//38 35//38 37//38 39//39 41//38 43//38 45//38 47//38 49//38
f 48//40 46//40 44//40 42//40 40//40 38//40 36//40 34//40 32//40 30//40 27//40 26//40
f 50//41 51//41 52//41 53//41
f 51//42 54//42 55//42 52//42
f 54//43 56//43 57//43 55//43
f 56//44 58//44 59//44 57//44
f 58//45 60//45 61//45 59//45
f 60//46 62//46 63//46 61//46
f 62//47 64//47 65//47 63//47
f 64//48 66//48 67//48 65//48
f 66//49 68//49 69//49 67//49
f 68//50 70//50 71//50 69//50
f 70//51 72//51 73//51 71//51
f 72//52 50//52 53//52 73//52
f 53//53 52//53 55//53 57//53 59//53 61//53 63//53 65//53 67//53 69//53 71//53 73//53
f 72//54 70//54 68//54 66//54 64//54 62//54 60//54 58//54 56//54 54//54 51//54 50//54
f 74//55 75//55 76//55 77//55
f 75//56 78//56 79//56 76//56
f 78//57 80//57 81//57 79//57
f 80//58 82//58 83//58 81//58
f 82//59 84//59 85//59 83//59
f 84//60 86//60 87//60 85//60
f 86//61 88//61 89//61 87//61
f 88//62 90//62 91//62 89//62
f 90//63 92//63 93//63 91//63
f 92//64 94//64 95//64 93//64
f 94//65 96//65 97//65 95//65
f 96//66 74//66 77//66 97//66
f 77//67 76//67 79//67 81//67 83//67 85//67 87//67 89//67 91//67 93//67 95//67 97//67
f 96//68 94//68 92//68 90//68 88//68 86//68 84//68 82//68 80//68 78//68 75//68 74//68
usemtl mat22
f 98//69 99//70 100//70 101//70
f 99//71 102//71 103//71 100//71
f 102//72 104//72 105//72 103//72
f 104//73 106//73 107//73 105//73
f 106//74 108//74 109//74 107//74
f 108//75 110//76 111//76 109//76
f 110//77 112//77 113//77 111//78
f 112//79 114//79 115//79 113//79
f 114//80 116//80 117//80 115//80
f 116//81 118//81 119//81 117//81
f 118//82 120//83 121//83 119//83
f 120//84 98//84 101//84 121//85
f 101//13 100//13 103//13 105//13 107//13 109//13 111//13 113//13 115//13 117//13 119//13 121//13
f 122//86 123//86 99//86 98//86
f 123//87 124//87 102//87 99//87
f 124//88 125//88 104//88 102//88
f 125//89 126//89 106//89 104//89
f 126//90 127//90 108//90 106//90
f 127//91 128//91 110//91 108//91
f 128//92 129//92 112//92 110//92
f 129//93 130//93 114//93 112//93
f 130//94 131//94 116//94 114//94
f 131//95 132//95 118//95 116//95
f 132//96 133//96 120//96 118//96
f 133//97 122//97 98//97 120//97
f 133//98 132//98 131//98 130//98 129//98 128//98 127//98 126//98 125//98 124//98 123//98 122//98
