# Blender v2.79 (sub 0) OBJ File: 'TorchTikiblend.blend'
# www.blender.org
mtllib TorchTikiblend.mtl
o Cylinder
v 0.000000 6.950000 -0.200000
v 0.000000 7.050000 -0.167369
v 0.173205 6.950000 -0.100000
v 0.144945 7.050000 -0.083684
v 0.173205 6.950000 0.100000
v 0.144945 7.050000 0.083684
v -0.000000 6.950000 0.200000
v -0.000000 7.050000 0.167369
v -0.173205 6.950000 0.100000
v -0.144945 7.050000 0.083684
v -0.173205 6.950000 -0.100000
v -0.144945 7.050000 -0.083684
v 0.173205 7.050000 -0.100000
v 0.000000 7.050000 -0.200000
v 0.173205 7.050000 0.100000
v -0.000000 7.050000 0.200000
v -0.173205 7.050000 0.100000
v -0.173205 7.050000 -0.100000
v 0.144945 7.028724 -0.083684
v 0.000000 7.028724 -0.167369
v 0.144945 7.028724 0.083684
v -0.000000 7.028724 0.167369
v -0.144945 7.028724 0.083684
v -0.144945 7.028724 -0.083684
vn 0.5000 0.0000 -0.8660
vn 1.0000 0.0000 0.0000
vn 0.5000 0.0000 0.8660
vn -0.5000 0.0000 0.8660
vn -1.0000 0.0000 0.0000
vn -0.5000 0.0000 -0.8660
vn 0.0000 -1.0000 -0.0000
vn 0.0000 1.0000 0.0000
usemtl None
s off
f 1//1 14//1 13//1 3//1
f 3//2 13//2 15//2 5//2
f 5//3 15//3 16//3 7//3
f 7//4 16//4 17//4 9//4
f 2//3 12//3 24//3 20//3
f 9//5 17//5 18//5 11//5
f 11//6 18//6 14//6 1//6
f 1//7 3//7 5//7 7//7 9//7 11//7
f 2//8 4//8 13//8 14//8
f 4//8 6//8 15//8 13//8
f 6//8 8//8 16//8 15//8
f 8//8 10//8 17//8 16//8
f 10//8 12//8 18//8 17//8
f 12//8 2//8 14//8 18//8
f 19//8 20//8 24//8 23//8 22//8 21//8
f 10//1 8//1 22//1 23//1
f 6//5 4//5 19//5 21//5
f 12//2 10//2 23//2 24//2
f 8//6 6//6 21//6 22//6
f 4//4 2//4 20//4 19//4
o Cube.001
v -0.138310 6.000000 0.250000
v -0.250000 6.000000 0.138310
v -0.250000 7.000000 0.138310
v -0.138310 7.000000 0.250000
v -0.250000 6.000000 -0.138310
v -0.138310 6.000000 -0.250000
v -0.138310 7.000000 -0.250000
v -0.250000 7.000000 -0.138310
v 0.250000 6.000000 0.138310
v 0.138310 6.000000 0.250000
v 0.138310 7.000000 0.250000
v 0.250000 7.000000 0.138310
v 0.138310 6.000000 -0.250000
v 0.250000 6.000000 -0.138310
v 0.250000 7.000000 -0.138310
v 0.138310 7.000000 -0.250000
v -0.100000 5.000000 0.055324
v -0.055324 5.000000 0.100000
v -0.055324 5.000000 -0.100000
v -0.100000 5.000000 -0.055324
v 0.100000 5.000000 -0.055324
v 0.055324 5.000000 -0.100000
v 0.055324 5.000000 0.100000
v 0.100000 5.000000 0.055324
vn 0.0000 0.0000 1.0000
vn 1.0000 0.0000 0.0000
vn 0.0000 1.0000 0.0000
vn -1.0000 0.0000 0.0000
vn 0.0000 0.0000 -1.0000
vn -0.7071 0.0000 0.7071
vn -0.7071 0.0000 -0.7071
vn 0.7071 0.0000 -0.7071
vn 0.7071 0.0000 0.7071
vn 0.6977 -0.1626 0.6977
vn 0.0000 -1.0000 0.0000
vn 0.6977 -0.1626 -0.6977
vn 0.0000 -0.1483 0.9889
vn 0.0000 -0.1483 -0.9889
vn -0.6977 -0.1626 -0.6977
vn -0.6977 -0.1626 0.6977
vn 0.9889 -0.1483 0.0000
vn -0.9889 -0.1483 0.0000
usemtl None
s off
f 34//9 35//9 28//9 25//9
f 38//10 39//10 36//10 33//10
f 39//11 40//11 31//11 32//11 27//11 28//11 35//11 36//11
f 26//12 27//12 32//12 29//12
f 30//13 31//13 40//13 37//13
f 25//14 28//14 27//14 26//14
f 31//15 30//15 29//15 32//15
f 39//16 38//16 37//16 40//16
f 35//17 34//17 33//17 36//17
f 33//18 34//18 47//18 48//18
f 44//19 43//19 46//19 45//19 48//19 47//19 42//19 41//19
f 37//20 38//20 45//20 46//20
f 34//21 25//21 42//21 47//21
f 30//22 37//22 46//22 43//22
f 29//23 30//23 43//23 44//23
f 25//24 26//24 41//24 42//24
f 38//25 33//25 48//25 45//25
f 26//26 29//26 44//26 41//26
o Cube
v 0.038599 0.000000 -0.100000
v 0.100000 0.000000 -0.038599
v 0.100000 0.000000 0.038599
v 0.038599 0.000000 0.100000
v -0.038599 0.000000 0.100000
v -0.100000 -0.000000 0.038599
v -0.100000 0.000000 -0.038599
v -0.038599 -0.000000 -0.100000
v 0.100000 5.000000 -0.038599
v 0.038599 5.000000 -0.100000
v 0.038599 5.000000 0.100000
v 0.100000 5.000000 0.038599
v -0.100000 5.000000 0.038599
v -0.038599 5.000000 0.100000
v -0.038599 5.000000 -0.100000
v -0.100000 5.000000 -0.038599
vn 0.0000 0.0000 -1.0000
vn 0.0000 -1.0000 0.0000
vn -1.0000 -0.0000 -0.0000
vn 0.0000 1.0000 0.0000
vn -0.0000 -0.0000 1.0000
vn 0.7071 0.0000 -0.7071
vn 0.7071 -0.0000 0.7071
vn -0.7071 -0.0000 0.7071
vn -0.7071 -0.0000 -0.7071
vn 1.0000 0.0000 0.0000
usemtl Material
s off
f 58//27 49//27 56//27 63//27
f 49//28 50//28 51//28 52//28 53//28 54//28 55//28 56//28
f 54//29 61//29 64//29 55//29
f 57//30 58//30 63//30 64//30 61//30 62//30 59//30 60//30
f 52//31 59//31 62//31 53//31
f 49//32 58//32 57//32 50//32
f 51//33 60//33 59//33 52//33
f 53//34 62//34 61//34 54//34
f 55//35 64//35 63//35 56//35
f 50//36 57//36 60//36 51//36
